# xmcd
#
# Track frame offsets:
#	150
#	12551
#	24332
#	37723
#	49986
#	62983
#	75946
#	89319
#	102606
#	115259
#
# Disc length: 1699 seconds
#
# Revision: 0
# Processed by: cddbd v1.5.1PL2 Copyright (c) Steve Scherf et al.
# Submitted via: dBpowerAMP V4.0
#
DISCID=7606a10a
DTITLE=Hank Williams Sr. - the best of Hank Williams
DYEAR=2001
DGENRE=Country
TTITLE0=Lovesick Blues
TTITLE1=A Mansion On The Hill
TTITLE2=You're Gonna Change (Or I'm Gonna Leave)
TTITLE3=Lost Highway
TTITLE4=I'm A Long Gone Daddy
TTITLE5=I Can't Get You Off Of My Mind
TTITLE6=Mind Your Own Business
TTITLE7=Wedding Bells
TTITLE8=I'm So Lonesome I Could Cry
TTITLE9=I Saw The Light
EXTD=
EXTT0=
EXTT1=
EXTT2=
EXTT3=
EXTT4=
EXTT5=
EXTT6=
EXTT7=
EXTT8=
EXTT9=
PLAYORDER=
